<svg xmlns="http://www.w3.org/2000/svg" viewBox="0 0 512 512" width="512" height="512">
  <defs>
    <linearGradient id="paper" x1="0" y1="0" x2="0" y2="1">
      <stop offset="0%" stop-color="#FBF7F1"/>
      <stop offset="100%" stop-color="#F3EDE3"/>
    </linearGradient>
    <linearGradient id="ember" x1="0.1" y1="0" x2="0.9" y2="1">
      <stop offset="0%" stop-color="#FF7A2D"/>
      <stop offset="60%" stop-color="#FF5A1F"/>
      <stop offset="100%" stop-color="#C44818"/>
    </linearGradient>
    <linearGradient id="spine" x1="0" y1="0" x2="1" y2="0">
      <stop offset="0%" stop-color="#241912"/>
      <stop offset="100%" stop-color="#3A2A1E"/>
    </linearGradient>
    <filter id="soft" x="-10%" y="-10%" width="120%" height="120%">
      <feGaussianBlur stdDeviation="3"/>
    </filter>
  </defs>
  <rect x="0" y="0" width="512" height="512" rx="112" fill="#1A1714"/>
  <g transform="translate(256 256) rotate(-8) translate(-180 -200)">
    <rect x="0" y="16" width="360" height="384" rx="20" fill="url(#spine)"/>
    <rect x="16" y="0" width="344" height="384" rx="18" fill="url(#paper)"/>
    <rect x="40" y="60" width="280" height="10" rx="5" fill="#D8CFBF"/>
    <rect x="40" y="92" width="260" height="10" rx="5" fill="#D8CFBF"/>
    <rect x="40" y="124" width="240" height="10" rx="5" fill="#E0D7C8"/>
    <rect x="40" y="156" width="220" height="10" rx="5" fill="#E0D7C8"/>
    <rect x="40" y="188" width="180" height="10" rx="5" fill="#E8E1D4"/>
    <rect x="16" y="0" width="12" height="384" fill="#CFC3AE" opacity="0.6"/>
  </g>
  <circle cx="408" cy="384" r="72" fill="url(#ember)"/>
  <circle cx="408" cy="384" r="84" fill="url(#ember)" opacity="0.25" filter="url(#soft)"/>
  <path d="M 378 356 Q 408 336 438 356 Q 448 380 428 400 Q 408 416 388 400 Q 368 380 378 356 Z" fill="#FFD3B4" opacity="0.9"/>
</svg>
